<!-- Generated from Cubit repository on 2026-01-03T15:59:00.216Z -->
<svg xmlns="http://www.w3.org/2000/svg" width="700" height="500" viewBox="0 0 700 500">
<rect width="100%" height="100%" fill="#0b1220"/>
<g stroke="#1a1a2e" stroke-width="1">
<line x1="0" y1="0" x2="0" y2="500" />
<line x1="50" y1="0" x2="50" y2="500" />
<line x1="100" y1="0" x2="100" y2="500" />
<line x1="150" y1="0" x2="150" y2="500" />
<line x1="200" y1="0" x2="200" y2="500" />
<line x1="250" y1="0" x2="250" y2="500" />
<line x1="300" y1="0" x2="300" y2="500" />
<line x1="350" y1="0" x2="350" y2="500" />
<line x1="400" y1="0" x2="400" y2="500" />
<line x1="450" y1="0" x2="450" y2="500" />
<line x1="500" y1="0" x2="500" y2="500" />
<line x1="550" y1="0" x2="550" y2="500" />
<line x1="600" y1="0" x2="600" y2="500" />
<line x1="650" y1="0" x2="650" y2="500" />
<line x1="0" y1="0" x2="700" y2="0" />
<line x1="0" y1="50" x2="700" y2="50" />
<line x1="0" y1="100" x2="700" y2="100" />
<line x1="0" y1="150" x2="700" y2="150" />
<line x1="0" y1="200" x2="700" y2="200" />
<line x1="0" y1="250" x2="700" y2="250" />
<line x1="0" y1="300" x2="700" y2="300" />
<line x1="0" y1="350" x2="700" y2="350" />
<line x1="0" y1="400" x2="700" y2="400" />
<line x1="0" y1="450" x2="700" y2="450" />
</g>
<defs><marker id="arrow" markerWidth="10" markerHeight="10" refX="8" refY="5" orient="auto"><path d="M0,0 L10,5 L0,10 z" fill="#fff"/></marker></defs>
<g id="caption" transform="translate(0, 460)"><text x="350" y="20" text-anchor="middle" fill="#ffffff" font-size="14" font-family="-apple-system, BlinkMacSystemFont, 'Segoe UI', Roboto, 'Helvetica Neue', Arial">Computational Geometry — Shapes &amp; Mappings</text>
</g>
</svg>